<?xml version="1.0" encoding="UTF-8"?>
<svg id="Layer_2" data-name="Layer 2" xmlns="http://www.w3.org/2000/svg" viewBox="0 0 41.65 9.07">
  <defs>
    <style>
      .cls-1 {
        fill: #c3996c;
        stroke-width: 0px;
      }
    </style>
  </defs>
  <g id="Layer_1-2" data-name="Layer 1">
    <g>
      <g>
        <path class="cls-1" d="m10.07,7.97c1.1.44,2.27-.02,3.34-.32.11-.03.54-.21.64-.15.09.05.14.38.22.48.18.22.46.39.74.43.22.03.46-.02.63-.16.02-.02.04-.04.05-.07.02-.07-.06-.13-.13-.17-.69-.41-.3-1.31.22-1.67.98-.67,2.07-1.31,3.22-.96,1.26.39,1.89,2.02.9,3.02-.13.13-.29.25-.48.28-.18.03-.39-.04-.48-.2-.11-.19-.02-.44-.08-.65-.1-.39-.68-.5-.97-.22-.29.28-.25.78,0,1.08s.69.41,1.09.37c1.03-.11,1.79-1.18,1.77-2.21,0-.15-.02-.3-.05-.45-.1-.47-.37-.89-.75-1.18-.45-.34-1.02-.47-1.57-.45-.07,0-.13,0-.2.01-1.07.1-2.07.6-2.97,1.21-.54.28-1.1.49-1.72.5-.31,0-.63,0-.94-.05-.27-.05-.83-.4-.47-.78.06-.06.02-.16-.06-.15-.46.02-.93.27-1.07.8-.04.14-.04.29-.01.43.03.12.12.23.14.34-.34.12-.62.38-.94.53-.16.07-.32.27-.09.36Z"/>
        <g>
          <path class="cls-1" d="m20.49,5.01c-.14-.09-.27-.22-.4-.33-2.08-1.83-5.24-2.03-7.71-.89-.62.29-1.21.61-1.78.99-.34.23-.66.49-.99.74-.32.25-.73.44-.97.77-.14.19-.24.43-.36.64-.12.21-.25.42-.39.61-.32.43-.71.77-1.23.96-.45.17-.93.21-1.41.22-.2,0-.4.01-.6.03-.11,0-.31.03-.35-.11-.03-.1.61-.71.62-.82-1.34.46-2.92.14-3.96-.81-.45-.41-.81-.93-.93-1.52-.15-.77.11-1.57.51-2.24.21-.35.47-.68.79-.92s.73-.39,1.14-.36.8.27.98.64c.09.18.12.4.08.6-.04.25-.19.49-.42.6-.5.23-1.14-.24-1.61.04-.2.12-.31.34-.34.57-.08.58.3,1.14.78,1.49.48.35,1.07.55,1.66.62,1.49.18,3.07-.32,4.4-.97.23-.11.46-.23.68-.36.03-.02.05-.03.08-.05,1.15-.67,2.16-1.59,3.35-2.2,1.54-.79,3.29-1.16,4.97-.81,1.09.23,2.13.8,2.9,1.7.25.29.61.77.59,1.2-.04,0-.06-.02-.1-.04Z"/>
          <path class="cls-1" d="m17.87,2.92c.3-.08-.21-.66-.28-.76-.17-.23-.31-.63,0-.82.15-.09.33-.1.5-.12.52-.05.63-.41.42-.87-.13-.29-.45-.38-.75-.35-.77.06-1.26.62-1.16,1.38.09.63.48,1.11.99,1.46.08.05.19.1.27.08Z"/>
        </g>
      </g>
      <g>
        <path class="cls-1" d="m31.58,7.97c-1.1.44-2.27-.02-3.34-.32-.11-.03-.54-.21-.64-.15-.09.05-.14.38-.22.48-.18.22-.46.39-.74.43-.22.03-.46-.02-.63-.16-.02-.02-.04-.04-.05-.07-.02-.07.06-.13.13-.17.69-.41.3-1.31-.22-1.67-.98-.67-2.07-1.31-3.22-.96-1.26.39-1.89,2.02-.9,3.02.13.13.29.25.48.28.18.03.39-.04.48-.2.11-.19.02-.44.08-.65.1-.39.68-.5.97-.22.29.28.25.78,0,1.08s-.69.41-1.09.37c-1.03-.11-1.79-1.18-1.77-2.21,0-.15.02-.3.05-.45.1-.47.37-.89.75-1.18.45-.34,1.02-.47,1.57-.45.07,0,.13,0,.2.01,1.07.1,2.07.6,2.97,1.21.54.28,1.1.49,1.72.5.31,0,.63,0,.94-.05.27-.05.83-.4.47-.78-.06-.06-.02-.16.06-.15.46.02.93.27,1.07.8.04.14.04.29.01.43-.03.12-.12.23-.14.34.34.12.62.38.94.53.16.07.32.27.09.36Z"/>
        <g>
          <path class="cls-1" d="m21.16,5.01c.14-.09.27-.22.4-.33,2.08-1.83,5.24-2.03,7.71-.89.62.29,1.21.61,1.78.99.34.23.66.49.99.74.32.25.73.44.97.77.14.19.24.43.36.64.12.21.25.42.39.61.32.43.71.77,1.23.96.45.17.93.21,1.41.22.2,0,.4.01.6.03.11,0,.31.03.35-.11.03-.1-.61-.71-.62-.82,1.34.46,2.92.14,3.96-.81.45-.41.81-.93.93-1.52.15-.77-.11-1.57-.51-2.24-.21-.35-.47-.68-.79-.92s-.73-.39-1.14-.36-.8.27-.98.64c-.09.18-.12.4-.08.6.04.25.19.49.42.6.5.23,1.14-.24,1.61.04.2.12.31.34.34.57.08.58-.3,1.14-.78,1.49-.48.35-1.07.55-1.66.62-1.49.18-3.07-.32-4.4-.97-.23-.11-.46-.23-.68-.36-.03-.02-.05-.03-.08-.05-1.15-.67-2.16-1.59-3.35-2.2-1.54-.79-3.29-1.16-4.97-.81-1.09.23-2.13.8-2.9,1.7-.25.29-.61.77-.59,1.2.04,0,.06-.02.1-.04Z"/>
          <path class="cls-1" d="m23.77,2.92c-.3-.08.21-.66.28-.76.17-.23.31-.63,0-.82-.15-.09-.33-.1-.5-.12-.52-.05-.63-.41-.42-.87.13-.29.45-.38.75-.35.77.06,1.26.62,1.16,1.38-.09.63-.48,1.11-.99,1.46-.08.05-.19.1-.27.08Z"/>
        </g>
      </g>
      <path class="cls-1" d="m20.45,3.18c.08.06.16.11.24.17.03.02.05.04.07.06.01,0,.02,0,.04,0,.03,0,.05-.02.07-.04.08-.07.17-.13.25-.19.2-.14.77-.5.72-.79-.02-.08-.06-.15-.1-.22-.13-.22-.26-.44-.4-.66-.07-.11-.13-.22-.2-.33-.09-.15-.13-.33-.31-.41-.08-.03-.14-.02-.19.04-.09.1-.15.22-.21.34-.06.12-.14.24-.21.36-.13.22-.26.44-.4.66-.04.07-.08.14-.1.22-.06.28.51.65.72.79Z"/>
    </g>
  </g>
</svg>