<?xml version="1.0" encoding="UTF-8"?>
<svg id="Layer_2" data-name="Layer 2" xmlns="http://www.w3.org/2000/svg" viewBox="0 0 16.96 16.96">
  <defs>
    <style>
      .cls-1 {
        fill: none;
      }

      .cls-1, .cls-2, .cls-3 {
        stroke-width: 0px;
      }

      .cls-2 {
        fill: #9c9c9b;
      }

      .cls-3 {
        fill: #585856;
      }
    </style>
  </defs>
  <g id="Layer_1-2" data-name="Layer 1">
    <g>
      <rect class="cls-1" width="16.96" height="16.96"/>
      <rect class="cls-2" x="4.56" y="13.03" width=".08" height=".11" transform="translate(-7.9 7.09) rotate(-45)"/>
      <rect class="cls-2" x="4.8" y="13.27" width=".08" height=".11" transform="translate(-8 7.32) rotate(-44.97)"/>
      <rect class="cls-2" x="5.29" y="13.75" width=".08" height=".11" transform="translate(-8.2 7.81) rotate(-44.97)"/>
      <rect class="cls-2" x="3.11" y="11.57" width=".08" height=".11" transform="translate(-7.3 5.63) rotate(-45)"/>
      <rect class="cls-2" x="4.32" y="12.78" width=".08" height=".11" transform="translate(-7.8 6.84) rotate(-44.97)"/>
      <rect class="cls-2" x="3.59" y="12.06" width=".08" height=".11" transform="translate(-7.5 6.12) rotate(-45)"/>
      <rect class="cls-2" x="3.35" y="11.81" width=".08" height=".11" transform="translate(-7.4 5.87) rotate(-44.97)"/>
      <rect class="cls-2" x="3.83" y="12.3" width=".08" height=".11" transform="translate(-7.6 6.35) rotate(-44.97)"/>
      <rect class="cls-2" x="4.08" y="12.54" width=".08" height=".11" transform="translate(-7.7 6.6) rotate(-45)"/>
      <rect class="cls-2" x="5.05" y="13.51" width=".08" height=".11" transform="translate(-8.1 7.57) rotate(-45)"/>
      <rect class="cls-2" x="6.98" y="15.45" width=".08" height=".11" transform="translate(-8.9 9.5) rotate(-44.97)"/>
      <rect class="cls-2" x="6.74" y="15.21" width=".08" height=".11" transform="translate(-8.8 9.26) rotate(-44.97)"/>
      <rect class="cls-2" x="7.23" y="15.69" width=".08" height=".11" transform="translate(-9.01 9.76) rotate(-45.03)"/>
      <rect class="cls-2" x="6.5" y="14.96" width=".08" height=".11" transform="translate(-8.71 9.03) rotate(-45.03)"/>
      <rect class="cls-2" x="5.53" y="14" width=".08" height=".11" transform="translate(-8.3 8.06) rotate(-45)"/>
      <rect class="cls-2" x="6.26" y="14.72" width=".08" height=".11" transform="translate(-8.61 8.78) rotate(-45)"/>
      <rect class="cls-2" x="5.77" y="14.24" width=".08" height=".11" transform="translate(-8.4 8.29) rotate(-44.97)"/>
      <rect class="cls-2" x="6.02" y="14.48" width=".08" height=".11" transform="translate(-8.51 8.54) rotate(-45)"/>
      <rect class="cls-2" x="2.62" y="11.09" width=".08" height=".11" transform="translate(-7.1 5.15) rotate(-45)"/>
      <rect class="cls-2" x="1.65" y="10.12" width=".08" height=".11" transform="translate(-6.7 4.18) rotate(-44.97)"/>
      <rect class="cls-2" x="1.9" y="10.36" width=".08" height=".11" transform="translate(-6.8 4.43) rotate(-45.03)"/>
      <rect class="cls-2" x="2.14" y="10.6" width=".08" height=".11" transform="translate(-6.9 4.66) rotate(-45)"/>
      <rect class="cls-2" x="2.38" y="10.85" width=".08" height=".11" transform="translate(-7 4.9) rotate(-44.97)"/>
      <rect class="cls-2" x="1.41" y="9.88" width=".08" height=".11" transform="translate(-6.6 3.94) rotate(-45.03)"/>
      <path class="cls-2" d="m7.56,16.03l.03-.03-.08-.08-.06.06.08.08.03-.03s-.02-.03-.02-.03c0,0,0,0,.03.02Z"/>
      <rect class="cls-2" x="1.17" y="9.63" width=".08" height=".11" transform="translate(-6.5 3.69) rotate(-44.97)"/>
      <rect class="cls-2" x="2.87" y="11.33" width=".08" height=".11" transform="translate(-7.2 5.39) rotate(-44.97)"/>
      <path class="cls-2" d="m.92,9.41l-.03.03.08.08.06-.06-.08-.08-.03.03s.02.03.02.03c0,0,0,0-.03-.02Z"/>
      <rect class="cls-2" x="3.09" y="5.29" width=".11" height=".08" transform="translate(-2.85 3.79) rotate(-45)"/>
      <rect class="cls-2" x="1.15" y="7.23" width=".11" height=".08" transform="translate(-4.79 2.99) rotate(-45)"/>
      <rect class="cls-2" x="6.24" y="2.14" width=".11" height=".08" transform="translate(.3 5.09) rotate(-45)"/>
      <rect class="cls-2" x="6" y="2.38" width=".11" height=".08" transform="translate(.06 4.99) rotate(-44.96)"/>
      <rect class="cls-2" x="5.76" y="2.62" width=".11" height=".08" transform="translate(-.18 4.89) rotate(-45)"/>
      <rect class="cls-2" x="2.61" y="5.77" width=".11" height=".08" transform="translate(-3.33 3.59) rotate(-45)"/>
      <rect class="cls-2" x="2.85" y="5.53" width=".11" height=".08" transform="translate(-3.09 3.69) rotate(-45)"/>
      <rect class="cls-2" x="7.21" y="1.17" width=".11" height=".08" transform="translate(1.27 5.49) rotate(-45)"/>
      <rect class="cls-2" x="6.97" y="1.41" width=".11" height=".08" transform="translate(1.03 5.39) rotate(-44.96)"/>
      <rect class="cls-2" x="1.4" y="6.98" width=".11" height=".08" transform="translate(-4.54 3.09) rotate(-45)"/>
      <rect class="cls-2" x="6.73" y="1.65" width=".11" height=".08" transform="translate(.79 5.29) rotate(-45)"/>
      <path class="cls-2" d="m7.55.92l-.03-.03-.08.08.06.06.08-.08-.03-.03s-.03.02-.03.02c0,0,0,0,.02-.03Z"/>
      <rect class="cls-2" x="6.48" y="1.9" width=".11" height=".08" transform="translate(.55 5.2) rotate(-45.06)"/>
      <path class="cls-2" d="m.93,7.56l.03.03.08-.08-.06-.06-.08.08.03.03s.03-.02.03-.02c0,0,0,0-.02.03Z"/>
      <rect class="cls-2" x="3.58" y="4.8" width=".11" height=".08" transform="translate(-2.36 3.99) rotate(-45)"/>
      <rect class="cls-2" x="4.55" y="3.83" width=".11" height=".08" transform="translate(-1.39 4.39) rotate(-45)"/>
      <rect class="cls-2" x="1.88" y="6.5" width=".11" height=".08" transform="translate(-4.06 3.29) rotate(-45)"/>
      <rect class="cls-2" x="4.3" y="4.08" width=".11" height=".08" transform="translate(-1.64 4.29) rotate(-45)"/>
      <rect class="cls-2" x="4.06" y="4.32" width=".11" height=".08" transform="translate(-1.88 4.19) rotate(-45)"/>
      <rect class="cls-2" x="5.52" y="2.87" width=".11" height=".08" transform="translate(-.42 4.79) rotate(-45)"/>
      <rect class="cls-2" x="2.12" y="6.26" width=".11" height=".08" transform="translate(-3.82 3.39) rotate(-45)"/>
      <rect class="cls-2" x="5.27" y="3.11" width=".11" height=".08" transform="translate(-.67 4.69) rotate(-45)"/>
      <rect class="cls-2" x="4.79" y="3.59" width=".11" height=".08" transform="translate(-1.15 4.49) rotate(-45)"/>
      <rect class="cls-2" x="3.34" y="5.05" width=".11" height=".08" transform="translate(-2.6 3.89) rotate(-45)"/>
      <rect class="cls-2" x="1.64" y="6.74" width=".11" height=".08" transform="translate(-4.3 3.19) rotate(-45)"/>
      <rect class="cls-2" x="5.03" y="3.35" width=".11" height=".08" transform="translate(-.91 4.59) rotate(-45)"/>
      <rect class="cls-2" x="3.82" y="4.56" width=".11" height=".08" transform="translate(-2.12 4.09) rotate(-45)"/>
      <rect class="cls-2" x="2.37" y="6.02" width=".11" height=".08" transform="translate(-3.57 3.49) rotate(-45)"/>
      <rect class="cls-2" x="12.07" y="3.58" width=".08" height=".11" transform="translate(.98 9.64) rotate(-45.03)"/>
      <rect class="cls-2" x="14.74" y="6.24" width=".08" height=".11" transform="translate(-.13 12.29) rotate(-45)"/>
      <rect class="cls-2" x="12.31" y="3.82" width=".08" height=".11" transform="translate(.87 9.87) rotate(-44.97)"/>
      <rect class="cls-2" x="12.56" y="4.06" width=".08" height=".11" transform="translate(.78 10.11) rotate(-45)"/>
      <rect class="cls-2" x="14.98" y="6.49" width=".08" height=".11" transform="translate(-.22 12.55) rotate(-45.03)"/>
      <rect class="cls-2" x="11.83" y="3.34" width=".08" height=".11" transform="translate(1.08 9.39) rotate(-45)"/>
      <rect class="cls-2" x="11.59" y="3.09" width=".08" height=".11" transform="translate(1.18 9.15) rotate(-45)"/>
      <rect class="cls-2" x="15.22" y="6.73" width=".08" height=".11" transform="translate(-.33 12.77) rotate(-44.97)"/>
      <rect class="cls-2" x="13.77" y="5.27" width=".08" height=".11" transform="translate(.28 11.33) rotate(-45)"/>
      <rect class="cls-2" x="13.53" y="5.03" width=".08" height=".11" transform="translate(.38 11.08) rotate(-45)"/>
      <rect class="cls-2" x="14.25" y="5.76" width=".08" height=".11" transform="translate(.07 11.8) rotate(-44.97)"/>
      <rect class="cls-2" x="11.34" y="2.85" width=".08" height=".11" transform="translate(1.28 8.9) rotate(-44.97)"/>
      <rect class="cls-2" x="13.28" y="4.79" width=".08" height=".11" transform="translate(.47 10.84) rotate(-44.97)"/>
      <rect class="cls-2" x="13.04" y="4.55" width=".08" height=".11" transform="translate(.58 10.61) rotate(-45.03)"/>
      <rect class="cls-2" x="12.8" y="4.3" width=".08" height=".11" transform="translate(.68 10.36) rotate(-45)"/>
      <rect class="cls-2" x="14.49" y="6" width=".08" height=".11" transform="translate(-.03 12.05) rotate(-45)"/>
      <rect class="cls-2" x="10.86" y="2.37" width=".08" height=".11" transform="translate(1.48 8.42) rotate(-45)"/>
      <rect class="cls-2" x="10.38" y="1.88" width=".08" height=".11" transform="translate(1.68 7.93) rotate(-44.97)"/>
      <rect class="cls-2" x="10.62" y="2.12" width=".08" height=".11" transform="translate(1.58 8.18) rotate(-45)"/>
      <path class="cls-2" d="m16.04,7.55l.03-.03-.08-.08-.06.06.08.08.03-.03s-.02-.03-.02-.03c0,0,0,0,.03.02Z"/>
      <rect class="cls-2" x="10.13" y="1.64" width=".08" height=".11" transform="translate(1.78 7.7) rotate(-45.03)"/>
      <rect class="cls-2" x="15.71" y="7.21" width=".08" height=".11" transform="translate(-.53 13.26) rotate(-45)"/>
      <path class="cls-2" d="m9.4.93l-.03.03.08.08.06-.06-.08-.08-.03.03s.02.03.02.03c0,0,0,0-.03-.02Z"/>
      <rect class="cls-2" x="14.01" y="5.52" width=".08" height=".11" transform="translate(.18 11.58) rotate(-45.03)"/>
      <rect class="cls-2" x="9.89" y="1.4" width=".08" height=".11" transform="translate(1.88 7.45) rotate(-45)"/>
      <rect class="cls-2" x="15.46" y="6.97" width=".08" height=".11" transform="translate(-.43 13.02) rotate(-45)"/>
      <rect class="cls-2" x="9.65" y="1.15" width=".08" height=".11" transform="translate(1.98 7.21) rotate(-45)"/>
      <rect class="cls-2" x="11.1" y="2.61" width=".08" height=".11" transform="translate(1.38 8.67) rotate(-45.03)"/>
      <rect class="cls-2" x="14.24" y="11.1" width=".11" height=".08" transform="translate(-3.69 13.37) rotate(-45)"/>
      <rect class="cls-2" x="9.88" y="15.46" width=".11" height=".08" transform="translate(-8.06 11.57) rotate(-45)"/>
      <path class="cls-2" d="m9.41,16.04l.03.03.08-.08-.06-.06-.08.08.03.03s.03-.02.03-.02c0,0,0,0-.02.03Z"/>
      <rect class="cls-2" x="14.48" y="10.86" width=".11" height=".08" transform="translate(-3.45 13.46) rotate(-44.96)"/>
      <rect class="cls-2" x="14.72" y="10.62" width=".11" height=".08" transform="translate(-3.21 13.57) rotate(-45)"/>
      <rect class="cls-2" x="15.69" y="9.65" width=".11" height=".08" transform="translate(-2.24 13.97) rotate(-45)"/>
      <rect class="cls-2" x="15.21" y="10.13" width=".11" height=".08" transform="translate(-2.72 13.77) rotate(-45)"/>
      <rect class="cls-2" x="15.45" y="9.89" width=".11" height=".08" transform="translate(-2.49 13.86) rotate(-44.96)"/>
      <rect class="cls-2" x="14.96" y="10.38" width=".11" height=".08" transform="translate(-2.96 13.68) rotate(-45.04)"/>
      <path class="cls-2" d="m16.03,9.4l-.03-.03-.08.08.06.06.08-.08-.03-.03s-.03.02-.03.02c0,0,0,0,.02-.03Z"/>
      <rect class="cls-2" x="12.3" y="13.04" width=".11" height=".08" transform="translate(-5.63 12.57) rotate(-45)"/>
      <rect class="cls-2" x="11.33" y="14.01" width=".11" height=".08" transform="translate(-6.6 12.17) rotate(-45)"/>
      <rect class="cls-2" x="14" y="11.34" width=".11" height=".08" transform="translate(-3.93 13.28) rotate(-45.04)"/>
      <rect class="cls-2" x="11.81" y="13.53" width=".11" height=".08" transform="translate(-6.12 12.37) rotate(-45)"/>
      <rect class="cls-2" x="10.85" y="14.49" width=".11" height=".08" transform="translate(-7.09 11.97) rotate(-45)"/>
      <rect class="cls-2" x="11.57" y="13.77" width=".11" height=".08" transform="translate(-6.36 12.26) rotate(-44.96)"/>
      <rect class="cls-2" x="10.12" y="15.22" width=".11" height=".08" transform="translate(-7.81 11.67) rotate(-45)"/>
      <rect class="cls-2" x="9.63" y="15.71" width=".11" height=".08" transform="translate(-8.3 11.47) rotate(-45)"/>
      <rect class="cls-2" x="10.6" y="14.74" width=".11" height=".08" transform="translate(-7.33 11.85) rotate(-44.96)"/>
      <rect class="cls-2" x="10.36" y="14.98" width=".11" height=".08" transform="translate(-7.57 11.77) rotate(-45)"/>
      <rect class="cls-2" x="11.09" y="14.25" width=".11" height=".08" transform="translate(-6.85 12.08) rotate(-45.04)"/>
      <rect class="cls-2" x="13.27" y="12.07" width=".11" height=".08" transform="translate(-4.66 12.97) rotate(-45)"/>
      <rect class="cls-2" x="13.03" y="12.31" width=".11" height=".08" transform="translate(-4.9 12.88) rotate(-45.04)"/>
      <rect class="cls-2" x="13.51" y="11.83" width=".11" height=".08" transform="translate(-4.42 13.06) rotate(-44.96)"/>
      <rect class="cls-2" x="12.06" y="13.28" width=".11" height=".08" transform="translate(-5.88 12.48) rotate(-45.04)"/>
      <rect class="cls-2" x="12.78" y="12.56" width=".11" height=".08" transform="translate(-5.15 12.77) rotate(-45)"/>
      <rect class="cls-2" x="13.75" y="11.59" width=".11" height=".08" transform="translate(-4.18 13.17) rotate(-45)"/>
      <rect class="cls-2" x="12.54" y="12.8" width=".11" height=".08" transform="translate(-5.39 12.66) rotate(-44.96)"/>
      <rect class="cls-3" x="8.16" y="8.16" width=".64" height=".64" transform="translate(-3.51 8.48) rotate(-45)"/>
      <polygon class="cls-3" points="0 0 0 .45 .45 0 0 0"/>
      <polygon class="cls-3" points="16.51 0 16.96 .45 16.96 0 16.51 0"/>
      <polygon class="cls-3" points="0 16.96 .45 16.96 0 16.51 0 16.96"/>
      <polygon class="cls-3" points="16.96 16.96 16.96 16.51 16.51 16.96 16.96 16.96"/>
      <path class="cls-3" d="m7.78.61c-.12.15-.2.27-.23.32-.01.02-.02.03-.02.03,0,0,0,0,.03-.02.05-.03.17-.11.32-.23.1-.08.21-.17.33-.28.09-.08.18-.17.28-.26.09.09.19.18.28.26.12.11.23.2.33.28.15.12.27.2.32.23.02.01.03.02.03.02,0,0,0,0-.02-.03-.03-.05-.11-.17-.23-.32-.08-.1-.17-.21-.28-.33-.08-.09-.17-.19-.26-.28h-.32c-.09.09-.18.19-.26.28-.11.12-.2.23-.28.33Z"/>
      <path class="cls-3" d="m8.9,16.68c.11-.12.2-.23.28-.33.12-.15.2-.27.23-.32.01-.02.02-.03.02-.03,0,0,0,0-.03.02-.05.03-.17.11-.32.23-.1.08-.21.17-.33.28-.09.08-.19.17-.28.26-.09-.09-.19-.18-.28-.26-.12-.11-.23-.2-.33-.28-.15-.12-.27-.2-.32-.23-.02-.01-.03-.02-.03-.02,0,0,0,0,.02.03.03.05.11.17.23.32.08.1.17.21.28.33.08.09.17.19.26.28h.32c.09-.09.18-.19.26-.28Z"/>
      <path class="cls-3" d="m.61,9.18c.15.12.27.2.32.23.02.01.03.02.03.02,0,0,0,0-.02-.03-.03-.05-.11-.17-.23-.32-.08-.1-.17-.21-.28-.33-.08-.09-.17-.19-.26-.28.09-.09.18-.19.26-.28.11-.12.2-.23.28-.33.12-.15.2-.27.23-.32.01-.02.02-.03.02-.03,0,0,0,0-.03.02-.05.03-.17.11-.32.23-.1.08-.21.17-.33.28-.09.08-.19.17-.28.26v.32c.09.09.19.18.28.26.12.11.23.2.33.28Z"/>
      <path class="cls-3" d="m16.35,7.78c-.15-.12-.27-.2-.32-.23-.02-.01-.03-.02-.03-.02,0,0,0,0,.02.03.03.05.11.17.23.32.08.1.17.21.28.33.08.09.17.19.26.28-.09.09-.18.19-.26.28-.11.12-.2.23-.28.33-.12.15-.2.27-.23.32-.01.02-.02.03-.02.03,0,0,0,0,.03-.02.05-.03.17-.11.32-.23.1-.08.21-.17.33-.28.09-.08.18-.17.28-.26v-.32c-.09-.09-.19-.18-.28-.26-.12-.11-.23-.2-.33-.28Z"/>
    </g>
  </g>
</svg>