<?xml version="1.0" encoding="UTF-8"?>
<svg id="Layer_2" data-name="Layer 2" xmlns="http://www.w3.org/2000/svg" viewBox="0 0 33.19 33.25">
  <defs>
    <style>
      .cls-1 {
        fill: #bfbfbf;
        stroke-width: 0px;
      }
    </style>
  </defs>
  <g id="Layer_1-2" data-name="Layer 1">
    <g>
      <polygon class="cls-1" points="29.07 4.87 29.07 4.87 29.07 4.87 29.07 4.87"/>
      <path class="cls-1" d="m30.13,26.35l-.04-.11.04.11c.18-.06.48-.19.79-.43.31-.25.64-.62.86-1.16h0s0-.01,0-.01c.18-.45.27-.96.27-1.53,0-.8-.18-1.71-.52-2.73-.22-.64-.51-1.33-.86-2.06-1.66-3.39-2.24-7.27-2.24-9.81,0-.94.08-1.69.21-2.16.12-.43.24-.76.34-.99.05-.11.09-.2.12-.26.01-.03.03-.05.03-.06v-.02s.01,0,.01,0h0s0,0,0,0c.02-.03.02-.06.02-.09,0-.06-.03-.13-.1-.16-.03-.02-.06-.02-.09-.02-.07,0-.13.03-.16.1-.02.03-.29.51-.54,1.42-.14.51-.22,1.29-.22,2.25,0,1.28.14,2.88.49,4.59.36,1.76.93,3.64,1.79,5.39.35.72.63,1.4.85,2.02.34.99.5,1.86.5,2.61,0,.52-.08.98-.24,1.38-.05.07-.15.15-.28.22-.2.1-.47.18-.72.24-.25.06-.47.09-.59.1-.14.02-.26.08-.36.17-.12.12-.19.28-.19.44,0,.03,0,.07,0,.1h0s0,.02,0,.02c.04.21.19.38.39.45.07.03.15.04.23.04.07,0,.14-.01.2-.03Z"/>
      <polygon class="cls-1" points="28.46 3.98 28.46 3.98 28.46 3.98 28.46 3.98"/>
      <path class="cls-1" d="m28.39,4.24h0c.06-.03.1-.1.09-.16,0-.03,0-.06-.02-.09-.03-.06-.1-.1-.16-.1-.03,0-.06,0-.09.02h0s-.03.02-.09.04c-.17.09-.6.28-1.24.46-.47.13-1.22.21-2.16.21-2.54,0-6.42-.58-9.81-2.24-.73-.36-1.42-.65-2.06-.86-1.02-.35-1.93-.52-2.73-.52-.57,0-1.08.09-1.53.27h0s-.01,0-.01,0c-.54.22-.91.55-1.16.86-.25.31-.37.61-.43.79l.11.04-.11-.04c-.02.07-.03.14-.03.2,0,.08.01.15.04.23.08.2.25.35.45.39h0s.08.01.12.01c.17,0,.33-.07.44-.19.09-.1.15-.23.17-.36.02-.16.07-.51.16-.84.05-.17.11-.33.17-.47.07-.13.14-.23.22-.28.4-.16.86-.24,1.38-.24.75,0,1.62.17,2.61.5.62.21,1.3.5,2.02.85,1.75.86,3.63,1.43,5.39,1.79,1.71.35,3.31.49,4.59.49.96,0,1.74-.08,2.25-.22.9-.25,1.39-.52,1.41-.54Z"/>
      <g>
        <path class="cls-1" d="m24,4.94c.07-.04.14-.09.2-.16.14-.15.22-.36.22-.56,0-.19-.07-.42-.23-.5-.09-.05-.22-.06-.32-.01-.07.03-.12.09-.16.15-.07.13-.01.23-.04.36-.09.43-.39.2-.47.06-.05-.1-.07-.21-.06-.33.05-1.15,1.32-.81,1.91-.56.61.25,1.16.67,1.8.84.33.09.78.07,1.05-.21-.04-.03-.07-.06-.11-.09-.04-.02-.09-.04-.13-.06-.23.07-.5.06-.69.04-.48-.05-.92-.27-1.34-.48-.36-.18-.73-.35-1.12-.45-.34-.09-.75-.19-1.11-.07-.54.19-.87.88-.68,1.44.18.54.75.87,1.27.59Z"/>
        <path class="cls-1" d="m25.14,3.32s.06.03.09.04c-.03-.01-.06-.03-.09-.04Z"/>
        <path class="cls-1" d="m28.41.09c-.35-.09-.76-.04-1.05.23s-.41.78-.2,1.09c.21.31.75.27.91-.1.09-.21.06-.46.19-.64.11-.15.31-.2.47-.15.16.05.28.19.38.34.71,1.14-.15,2.69-1.36,2.93-1.1.22-1.97-.56-2.73-1.36-.4-.42-.59-1.38.1-1.7.07-.03.15-.08.15-.15,0-.03-.02-.05-.03-.07-.13-.16-.33-.24-.54-.24-.26,0-.55.13-.75.34-.09.09-.19.41-.28.45-.1.05-.45-.19-.55-.23-.91-.44-1.88-1.05-2.95-.74-.23.07-.12.28.01.38.27.19.47.48.75.65-.04.11-.14.21-.19.33-.05.14-.07.29-.07.43.03.55.41.86.82.94.07.01.12-.08.08-.15-.26-.43.31-.71.56-.73.29-.02.57.02.86.06.56.09,1.03.37,1.46.72.7.72,1.51,1.35,2.46,1.58.7.18,1.53.05,2.08-.53.21-.22.38-.49.49-.79.05-.14.1-.29.12-.44.2-1.04-.29-2.2-1.19-2.44Z"/>
      </g>
      <g>
        <path class="cls-1" d="m28.25,9c.04-.07.09-.14.16-.2.15-.14.36-.22.56-.22.19,0,.42.07.5.23.05.09.06.22.01.32-.03.07-.09.12-.15.16-.13.07-.23.01-.36.04-.43.09-.2.39-.06.47.1.05.21.07.33.06,1.15-.05.81-1.32.56-1.91-.25-.61-.67-1.16-.84-1.8-.09-.33-.07-.78.21-1.05.03.04.06.07.09.11.02.04.04.09.06.13-.07.23-.06.5-.04.69.05.48.27.92.48,1.34.18.36.35.73.45,1.12.09.34.19.75.07,1.11-.19.54-.88.87-1.44.68-.54-.18-.87-.75-.59-1.27Z"/>
        <path class="cls-1" d="m29.87,7.86s-.03-.06-.04-.09c.01.03.03.06.04.09Z"/>
        <path class="cls-1" d="m33.1,4.6c.09.35.04.76-.23,1.05s-.78.41-1.09.2c-.31-.21-.27-.75.1-.91.21-.09.46-.06.64-.19.15-.11.2-.31.15-.47-.05-.16-.19-.28-.34-.38-1.14-.71-2.69.15-2.93,1.36-.22,1.1.56,1.97,1.36,2.73.42.4,1.38.59,1.7-.1.03-.07.08-.15.15-.15.03,0,.05.02.07.03.16.13.24.33.24.54,0,.26-.13.55-.34.75-.09.09-.41.19-.45.28-.05.1.19.45.23.55.44.91,1.05,1.88.74,2.95-.07.23-.28.12-.38-.01-.19-.27-.48-.47-.65-.75-.11.04-.21.14-.33.19-.14.05-.29.07-.43.07-.55-.03-.86-.41-.94-.82-.01-.07.08-.12.15-.08.43.26.71-.31.73-.56.02-.29-.02-.57-.06-.86-.09-.56-.37-1.03-.72-1.46-.72-.7-1.35-1.51-1.58-2.46-.18-.7-.05-1.53.53-2.08.22-.21.49-.38.79-.49.14-.05.29-.1.44-.12,1.04-.2,2.2.29,2.44,1.19Z"/>
      </g>
      <path class="cls-1" d="m25.64,4.97c.34.57,1.33.48,2.05.32.09-.02.17-.04.25-.06-.03.07-.06.15-.09.24-.24.7-.46,1.68.07,2.08-.93.14-1.14-.72-.46-1.89-1.24.53-2.07.21-1.82-.69Z"/>
      <path class="cls-1" d="m29.54,33.04V8.9c0-.12-.09-.21-.21-.21s-.21.09-.21.21v24.14c0,.12.09.21.21.21s.21-.09.21-.21Z"/>
      <path class="cls-1" d="m24.2,3.9c0-.12-.09-.21-.21-.21H.21c-.12,0-.21.09-.21.21s.09.21.21.21h23.78c.12,0,.21-.09.21-.21Z"/>
      <path class="cls-1" d="m32.1,4.89c-.55,0-1.07-.11-1.55-.32-.72-.31-1.34-.82-1.77-1.46-.44-.64-.69-1.41-.69-2.24,0,0,0-.02,0-.03,0-.29-.23-.52-.52-.52-.29,0-.52.23-.52.52,0,.01,0,.02,0,.03,0,.69.14,1.36.4,1.96.39.91,1.03,1.68,1.83,2.22.81.55,1.78.87,2.82.87.29,0,.52-.23.52-.52s-.23-.52-.52-.52h0Z"/>
      <path class="cls-1" d="m31.01,3.01c.12-.12.2-.29.2-.48,0-.19-.08-.36-.2-.48-.12-.12-.29-.2-.48-.2-.19,0-.36.08-.48.2-.12.12-.2.29-.2.48,0,.19.08.36.2.48.12.12.29.2.48.2.19,0,.36-.08.48-.2Zm-.67-.29s-.08-.11-.08-.19c0-.07.03-.14.08-.19.05-.05.11-.08.19-.08.07,0,.14.03.19.08.05.05.08.11.08.19,0,.07-.03.14-.08.19-.05.05-.11.08-.19.08-.07,0-.14-.03-.19-.08Z"/>
    </g>
  </g>
</svg>