<?xml version="1.0" encoding="UTF-8"?>
<svg id="Layer_2" data-name="Layer 2" xmlns="http://www.w3.org/2000/svg" viewBox="0 0 35.89 7.05">
  <defs>
    <style>
      .cls-1 {
        fill: #bfbfbf;
        stroke-width: 0px;
      }
    </style>
  </defs>
  <g id="Layer_1-2" data-name="Layer 1">
    <g>
      <path class="cls-1" d="m.2,5.24c1.81.73,3.73-.03,5.48-.53.18-.05.89-.35,1.05-.25.15.09.23.62.36.78.29.37.75.63,1.21.7.36.05.75-.03,1.03-.26.04-.03.07-.07.09-.11.03-.12-.11-.21-.22-.28-1.13-.66-.49-2.15.36-2.73,1.6-1.1,3.4-2.15,5.28-1.57,2.06.64,3.11,3.31,1.47,4.96-.22.22-.48.41-.78.46-.3.05-.65-.07-.79-.33-.17-.32-.04-.72-.12-1.07-.16-.63-1.11-.82-1.58-.36-.47.45-.42,1.29.01,1.78.43.49,1.14.67,1.79.6,1.69-.18,2.93-1.93,2.9-3.63,0-.24-.03-.49-.08-.73-.16-.77-.61-1.47-1.23-1.94C15.68.19,14.74-.02,13.84,0c-.11,0-.22,0-.33.02-1.76.17-3.4.99-4.87,1.98-.88.46-1.8.8-2.82.83-.51.01-1.03.01-1.54-.09-.44-.08-1.37-.65-.77-1.28.1-.1.04-.26-.09-.25-.75.03-1.52.45-1.75,1.31-.06.23-.07.47-.02.7.04.2.19.38.23.56-.55.2-1.01.62-1.54.86-.26.12-.53.44-.14.59Z"/>
      <path class="cls-1" d="m35.69,5.24c-1.81.73-3.73-.03-5.48-.53-.18-.05-.89-.35-1.05-.25-.15.09-.23.62-.36.78-.29.37-.75.63-1.21.7-.36.05-.75-.03-1.03-.26-.04-.03-.07-.07-.09-.11-.03-.12.11-.21.22-.28,1.13-.66.49-2.15-.36-2.73-1.6-1.1-3.4-2.15-5.28-1.57-2.06.64-3.11,3.31-1.47,4.96.22.22.48.41.78.46.3.05.65-.07.79-.33.17-.32.04-.72.13-1.07.16-.63,1.11-.82,1.58-.36.47.45.42,1.29-.01,1.78-.43.49-1.14.67-1.79.6-1.69-.18-2.93-1.93-2.9-3.63,0-.24.03-.49.08-.73.16-.77.61-1.47,1.23-1.94C20.21.19,21.14-.02,22.05,0c.11,0,.22,0,.33.02,1.76.17,3.4.99,4.87,1.98.88.46,1.8.8,2.82.83.51.01,1.03.01,1.54-.09.44-.08,1.37-.65.77-1.28-.1-.1-.04-.26.09-.25.75.03,1.52.45,1.75,1.31.06.23.07.47.02.7-.04.2-.19.38-.23.56.55.2,1.01.62,1.54.86.26.12.53.44.14.59Z"/>
    </g>
  </g>
</svg>