<svg xmlns="http://www.w3.org/2000/svg" width="1561" height="1321" viewBox="0 0 1561 1321">
  <defs>
    <style>
      .cls-1 {
        fill: #544232;
      }

      .cls-1, .cls-10, .cls-11, .cls-12, .cls-13, .cls-14, .cls-15, .cls-16, .cls-17, .cls-2, .cls-3, .cls-4, .cls-5, .cls-6, .cls-7, .cls-8, .cls-9 {
        fill-rule: evenodd;
      }

      .cls-2 {
        fill: #5e4a38;
      }

      .cls-3, .cls-6 {
        fill: #82664d;
      }

      .cls-4 {
        fill: #6e5641;
      }

      .cls-5 {
        fill: #f2cd9b;
      }

      .cls-6 {
        opacity: 0.25;
      }

      .cls-10, .cls-6 {
        mix-blend-mode: multiply;
      }

      .cls-7 {
        fill: #ffe7c7;
      }

      .cls-8 {
        fill: #ebcda5;
      }

      .cls-10, .cls-9 {
        fill: #a86935;
      }

      .cls-10 {
        opacity: 0.3;
      }

      .cls-11 {
        fill: #918376;
      }

      .cls-12 {
        fill: #525284;
      }

      .cls-13 {
        fill: #484272;
      }

      .cls-14, .cls-17 {
        fill: #e6e0ca;
      }

      .cls-14 {
        opacity: 0.51;
      }

      .cls-15 {
        fill: #3a335c;
      }

      .cls-16 {
        fill: #8b79b2;
        opacity: 0.5;
      }

      .cls-16, .cls-17 {
        mix-blend-mode: screen;
      }

      .cls-17 {
        opacity: 0.37;
      }
    </style>
  </defs>
  <g id="document_files" data-name="document files">
    <g id="_Group_" data-name="&lt;Group&gt;">
      <path id="_Path_" data-name="&lt;Path&gt;" class="cls-1" d="M19570.3,3734.92l-15.8,25.38-843.6,212.27,7.4-33.22Z" transform="translate(-18445 -2652)"/>
      <path id="_Path_2" data-name="&lt;Path&gt;" class="cls-2" d="M18447.6,2868.38s-0.6,29.9-2.5,39.13c-1.8,9.23,265.8,1065.06,265.8,1065.06l16.2-20.26-197-993.11Z" transform="translate(-18445 -2652)"/>
      <path id="_Path_3" data-name="&lt;Path&gt;" class="cls-3" d="M19570.3,3734.91l-380.1,98-349.1,89.99-114,29.41-159.6-618.95-58.9-228.33-10.7-41.44-23.4-91.1-26.9-104.1,843.3-217.4,231.9,899.59,19.6,76.21Z" transform="translate(-18445 -2652)"/>
      <path id="_Path_4" data-name="&lt;Path&gt;" class="cls-4" d="M18718.8,2995.1c-6.9,7.58-17.2,12.08-27.5,9.87-9.6-2.06-16.6-9.96-20.8-18.47-4.8-9.85-7.2-20.73-10.1-31.25-3.6-12.72-7.1-25.45-10.6-38.19q-10.5-37.74-21-75.51c-1.7-6.18-3.5-12.35-5.2-18.53l10.5-2.71c0.4,1.34.8,2.69,1.1,4.03,3.3,11.73,6.6,23.44,9.8,35.15q9.75,34.74,19.3,69.45c3.2,11.56,6.4,23.15,9.7,34.72,2.3,8.31,4.4,16.23,9.3,23.22,4,5.64,10.5,9.16,17.2,7.39,7.2-1.88,13.5-8.55,16-15.63,3.6-10.28,1.5-21.6-1.2-31.79-3.1-11.37-6.8-22.58-10.3-33.82q-5.25-17.085-10.5-34.16c-2.5-8.24-4.9-17.46-10.7-23.79a18.586,18.586,0,0,0-4.5-3.72q-0.45-.24-0.9-0.45c0-.02,0-0.04-0.1-0.04a0.183,0.183,0,0,0-.1-0.03,0.515,0.515,0,0,1-.2-0.11,22.837,22.837,0,0,0-2.6-.71c-0.1-.01-0.8-0.1-0.9-0.12h0a12.436,12.436,0,0,0-1.3-.07,17.693,17.693,0,0,0-2.3.09h0c-0.2.07-1.4,0.25-1.6,0.32a11.425,11.425,0,0,0-1.9.58c-0.1.07-.9,0.41-1,0.51-0.4.19-.7,0.43-1.1,0.63-0.1.03-.1,0.05-0.1,0.09a0.183,0.183,0,0,0-.1.03c-0.3.28-.6,0.56-0.9,0.85-0.1.15-.3,0.29-0.4,0.44v0.05s0,0.02-.1.02c0,0.14-.2.34-0.2,0.45-0.2.26-.3,0.53-0.5,0.8v0.02a2.907,2.907,0,0,1-.1.28,13.3,13.3,0,0,0,.4,6.2c0.7,2.68,1.5,5.34,2.3,7.97,6.8,23.27,13.5,46.53,20.3,69.79,2,6.72-8.5,9.56-10.5,2.87q-2.7-9.3-5.4-18.63c-3.6-12.56-7.3-25.13-11-37.7-1.8-6.37-3.7-12.71-5.5-19.07-1.7-5.68-2.6-11.44,0-16.96,3.8-7.84,13.6-11.26,21.8-10.33,10.3,1.15,17.8,8.4,22.4,17.33,5.3,10.08,7.9,21.52,11.2,32.33,3.9,12.53,7.7,25.05,11.5,37.58C18727.2,2948.44,18736.7,2975.62,18718.8,2995.1Z" transform="translate(-18445 -2652)"/>
      <path id="_Rectangle_" data-name="&lt;Rectangle&gt;" class="cls-5" d="M18532.9,2892.59l755.5-153.01,196.6,971.13-755.4,153.01Z" transform="translate(-18445 -2652)"/>
      <path id="_Path_5" data-name="&lt;Path&gt;" class="cls-6" d="M19542.4,3626.79l-352.2,206.12-349.1,89.99-273.6-589.54-69.6-269.77,31.2-16.72,993.7,503.71Z" transform="translate(-18445 -2652)"/>
      <path id="_Rectangle_2" data-name="&lt;Rectangle&gt;" class="cls-7" d="M18448,3020.04l696-331.38,425.9,894.6L18874,3914.64Z" transform="translate(-18445 -2652)"/>
      <path id="_Path_6" data-name="&lt;Path&gt;" class="cls-8" d="M18975,2987.76l201.9-103.49a15.919,15.919,0,0,0,6.9-21.4h0a15.91,15.91,0,0,0-21.4-6.9l-201.9,103.49a15.833,15.833,0,0,0-6.9,21.4h0A15.865,15.865,0,0,0,18975,2987.76Z" transform="translate(-18445 -2652)"/>
      <path id="_Path_7" data-name="&lt;Path&gt;" class="cls-8" d="M18978.8,3057.82l238.1-122.04a15.919,15.919,0,0,0,6.9-21.4h0a15.893,15.893,0,0,0-21.4-6.9l-238.1,122.05a15.913,15.913,0,0,0-6.9,21.4h0A15.9,15.9,0,0,0,18978.8,3057.82Z" transform="translate(-18445 -2652)"/>
      <path id="_Path_8" data-name="&lt;Path&gt;" class="cls-8" d="M18852.1,3268.08l238.7-120.83a15.808,15.808,0,0,0,7-21.36h0a15.808,15.808,0,0,0-21.3-7.01l-238.8,120.83a15.9,15.9,0,0,0-7,21.37h0A15.928,15.928,0,0,0,18852.1,3268.08Z" transform="translate(-18445 -2652)"/>
      <path id="_Path_9" data-name="&lt;Path&gt;" class="cls-8" d="M18739.1,3434.31l542.9-274.74a14.822,14.822,0,0,0,6.5-19.77l-1.8-3.52a14.73,14.73,0,0,0-19.8-6.48l-542.8,274.73a14.658,14.658,0,0,0-6.5,19.78l1.8,3.51A14.628,14.628,0,0,0,18739.1,3434.31Z" transform="translate(-18445 -2652)"/>
      <path id="_Path_10" data-name="&lt;Path&gt;" class="cls-8" d="M18769.8,3488.87l112.7-57.01a16.457,16.457,0,0,0,7.2-22.2l-0.1-.3a16.527,16.527,0,0,0-22.2-7.28l-112.7,57.01a16.457,16.457,0,0,0-7.2,22.2l0.1,0.3A16.527,16.527,0,0,0,18769.8,3488.87Z" transform="translate(-18445 -2652)"/>
      <path id="_Path_11" data-name="&lt;Path&gt;" class="cls-8" d="M18937.5,3402.96l183.7-92.96a16.658,16.658,0,0,0,7.3-22.43h0a16.651,16.651,0,0,0-22.4-7.35l-183.7,92.96a16.661,16.661,0,0,0-7.3,22.43h0A16.651,16.651,0,0,0,18937.5,3402.96Z" transform="translate(-18445 -2652)"/>
      <path id="_Path_12" data-name="&lt;Path&gt;" class="cls-8" d="M18894.5,3708.2l185.9-88.4a16.761,16.761,0,0,0,7.9-22.24h0a16.665,16.665,0,0,0-22.2-7.9l-186,88.4a16.749,16.749,0,0,0-7.9,22.23h0A16.752,16.752,0,0,0,18894.5,3708.2Z" transform="translate(-18445 -2652)"/>
      <path id="_Path_13" data-name="&lt;Path&gt;" class="cls-8" d="M18966.4,3743.27l186-88.4a16.758,16.758,0,0,0,7.9-22.24h0a16.748,16.748,0,0,0-22.3-7.9l-185.9,88.4a16.749,16.749,0,0,0-7.9,22.23h0A16.66,16.66,0,0,0,18966.4,3743.27Z" transform="translate(-18445 -2652)"/>
      <path id="_Path_14" data-name="&lt;Path&gt;" class="cls-9" d="M19745.2,3573.13l-54.1,44.66-77.6-94-47.2-57.15-217.2-263.05,54.1-44.66,213.3,258.37,36.3,43.92Z" transform="translate(-18445 -2652)"/>
      <path id="_Path_15" data-name="&lt;Path&gt;" class="cls-10" d="M19652.8,3461.22a118.9,118.9,0,0,0-39.3,62.57l-47.2-57.15,50.2-49.34Z" transform="translate(-18445 -2652)"/>
      <g id="_Group_2" data-name="&lt;Group&gt;">
        <path id="_Compound_Path_" data-name="&lt;Compound Path&gt;" class="cls-11" d="M18720.4,2926.37c-3.8-12.53-7.6-25.05-11.5-37.58-3.3-10.81-5.9-22.25-11.2-32.33-4.6-8.93-12.1-16.18-22.4-17.33-8.2-.93-18,2.49-21.8,10.33-2.6,5.52-1.7,11.28,0,16.96,1.8,6.36,3.7,12.7,5.5,19.07,3.7,12.57,7.4,25.14,11,37.7q2.7,9.33,5.4,18.63c2,6.69,12.5,3.85,10.5-2.87-6.8-23.26-13.5-46.52-20.3-69.79-0.8-2.63-1.6-5.29-2.3-7.97a13.3,13.3,0,0,1-.4-6.2,2.907,2.907,0,0,0,.1-0.28v-0.02c0.2-.27.3-0.54,0.5-0.8,0-.11.2-0.31,0.2-0.45,0.1,0,.1-0.02.1-0.02v-0.05c0.1-.15.3-0.29,0.4-0.44,0.3-.29.6-0.57,0.9-0.85a0.183,0.183,0,0,1,.1-0.03c0-.04,0-0.06.1-0.09,0.4-.2.7-0.44,1.1-0.63,0.1-.1.9-0.44,1-0.51a11.425,11.425,0,0,1,1.9-.58c0.2-.07,1.4-0.25,1.6-0.32h0a17.693,17.693,0,0,1,2.3-.09,12.436,12.436,0,0,1,1.3.07h0c0.1,0.02.8,0.11,0.9,0.12a22.837,22.837,0,0,1,2.6.71,0.515,0.515,0,0,0,.2.11,0.183,0.183,0,0,1,.1.03c0.1,0,.1.02,0.1,0.04q0.45,0.21.9,0.45a18.586,18.586,0,0,1,4.5,3.72c5.8,6.33,8.2,15.55,10.7,23.79q5.25,17.085,10.5,34.16c3.5,11.24,7.2,22.45,10.3,33.82,2.7,10.19,4.8,21.51,1.2,31.79-2.5,7.08-8.8,13.75-16,15.63-6.7,1.77-13.2-1.75-17.2-7.39-4.9-6.99-7-14.91-9.3-23.22-3.3-11.57-6.5-23.16-9.7-34.72q-9.6-34.71-19.3-69.45c-3.2-11.71-6.5-23.42-9.8-35.15-0.3-1.34-.7-2.69-1.1-4.03-2.8-10.08-5.8-20.17-8.1-30.4a88.413,88.413,0,0,1-2.2-16.21c0-1.79-.1-3.69,1.1-5.17,1-1.34,3.1-2.35,4.9-3.2a74.43,74.43,0,0,1,11.1-4.18,40.752,40.752,0,0,1,11.5-1.93c0.9-.02,1.9.02,2.9,0.09a1.358,1.358,0,0,0,.4.05l0.1,0.02h0.1c0.3,0.06.7,0.13,1.1,0.2a23.89,23.89,0,0,1,2.4.67,3.174,3.174,0,0,0,.4.14h0a1.629,1.629,0,0,0,.3.17,8.508,8.508,0,0,1,1.4.79,10.832,10.832,0,0,1,3.1,2.84,19.078,19.078,0,0,1,2.6,6.06c3.2,10.95,5.1,22.46,6.6,33.74,0.3,1.95.5,3.92,0.7,5.89l10.5-2.71c-1-8.42-2.3-16.79-4-25.09-2.1-10.82-3.8-23.78-14-30.11-8.2-5.06-18.8-4.01-27.7-1.61a97.319,97.319,0,0,0-13.5,4.9c-5.1,2.26-9.8,5.46-11.8,10.94-2.2,5.85-.8,13.03.2,19.01a146.523,146.523,0,0,0,4.1,18.45c1.7,6.46,3.5,12.91,5.3,19.36,1.7,6.18,3.5,12.35,5.2,18.53q10.5,37.755,21,75.51c3.5,12.74,7,25.47,10.6,38.19,2.9,10.52,5.3,21.4,10.1,31.25,4.2,8.51,11.2,16.41,20.8,18.47,10.3,2.21,20.6-2.29,27.5-9.87C18736.7,2975.62,18727.2,2948.44,18720.4,2926.37Zm-55.4-74.23c-0.1.09-.2,0.14,0,0h0Z" transform="translate(-18445 -2652)"/>
      </g>
      <path id="_Compound_Path_2" data-name="&lt;Compound Path&gt;" class="cls-12" d="M19593.4,2930.65a343.483,343.483,0,0,0-528,388.27c46.3,134.91,174.2,231.87,324.8,231.87,189.7,0,343.4-153.72,343.4-343.33C19733.6,3093.86,19678.4,2993.13,19593.4,2930.65Zm-203.2,550.92a273,273,0,0,1-171.5-60.28c-6.8-5.51-13.4-11.33-19.7-17.48a273.321,273.321,0,0,1-82.9-196.35c0-2.03,0-4.03.1-6.04,2.8-129.18,94.9-236.32,217-262.15a276.261,276.261,0,0,1,57-5.92,272.771,272.771,0,0,1,169.2,58.45v0.02a269.472,269.472,0,0,1,36.4,34.32,273.328,273.328,0,0,1,68.5,181.32C19664.3,3358.85,19541.6,3481.57,19390.2,3481.57Z" transform="translate(-18445 -2652)"/>
      <path id="_Path_16" data-name="&lt;Path&gt;" class="cls-13" d="M19997.3,3843.19l-62,55.42c-12.2,10.93-32.5,7.9-44.5-6.67l-28.3-34.3-224.1-271.46c-11.3-13.66-11.2-32.5.3-42.74l35.6-31.78,3.3-2.98c11.5-10.25,30.2-8.28,42.5,4.46l275.5,285.09C20008.8,3811.8,20009.5,3832.28,19997.3,3843.19Z" transform="translate(-18445 -2652)"/>
      <g id="_Clip_Group_" data-name="&lt;Clip Group&gt;">
        <path id="_Path_17" data-name="&lt;Path&gt;" class="cls-4" d="M19514.8,2925.05l105.2,470.69-110.7,113.52s-227.1,44.3-335-74.76c-108-119.05-144-329.48-2.8-440.23S19514.8,2925.05,19514.8,2925.05Z" transform="translate(-18445 -2652)"/>
        <path id="_Path_18" data-name="&lt;Path&gt;" class="cls-5" d="M19442.8,2897.36l108,578.68s-174.4,116.29-296.2,22.15c-121.9-94.14-229.9-274.11-157.9-418.09S19345.9,2883.51,19442.8,2897.36Z" transform="translate(-18445 -2652)"/>
        <path id="_Path_19" data-name="&lt;Path&gt;" class="cls-7" d="M19332.1,2886.28l307.3,509.46s-132.9,146.75-263,127.37c-130.2-19.39-343.3-152.29-301.8-340.57S19249,2902.9,19332.1,2886.28Z" transform="translate(-18445 -2652)"/>
      </g>
      <path id="_Path_20" data-name="&lt;Path&gt;" class="cls-14" d="M19664.3,3207.46a273.929,273.929,0,0,1-244.3,272.52,279.06,279.06,0,0,1-29.8,1.59,273.235,273.235,0,0,1-183.4-70.4c-6.3-5.71-12.4-11.73-18.2-18a280.191,280.191,0,0,1-36.3-49.45,286.132,286.132,0,0,1-15.8-32.45,274.149,274.149,0,0,1-16.8-59.3,283.691,283.691,0,0,1-3.6-44.51c0-106.26,60.5-198.38,148.8-243.88A274.112,274.112,0,0,1,19664.3,3207.46Z" transform="translate(-18445 -2652)"/>
      <path id="_Path_21" data-name="&lt;Path&gt;" class="cls-15" d="M19116.1,3207.46a273.321,273.321,0,0,0,82.9,196.35,273.361,273.361,0,0,1-105-215.73c0-151.39,122.7-274.11,274.1-274.11a273.149,273.149,0,0,1,191.3,77.83,272.771,272.771,0,0,0-169.2-58.45C19238.8,2933.35,19116.1,3056.07,19116.1,3207.46Z" transform="translate(-18445 -2652)"/>
      <path id="_Path_22" data-name="&lt;Path&gt;" class="cls-13" d="M19733.6,3207.46c0,189.61-153.7,343.33-343.4,343.33-150.6,0-278.5-96.96-324.8-231.87,21.8,32.62,68.3,84.03,153.3,102.37a273,273,0,0,0,171.5,60.28c151.4,0,274.1-122.72,274.1-274.11a273.328,273.328,0,0,0-68.5-181.32,453.831,453.831,0,0,0-2.4-95.49C19678.4,2993.13,19733.6,3093.86,19733.6,3207.46Z" transform="translate(-18445 -2652)"/>
      <path id="_Path_23" data-name="&lt;Path&gt;" class="cls-15" d="M19997.3,3843.19l-62,55.42c-12.2,10.93-32.5,7.9-44.5-6.67l-28.3-34.3c10.4-13.79,25.1-42.35,15-86.27-13.4-58.81-161.5-220.18-203.2-259.71l3.3-2.98c11.5-10.25,30.2-8.28,42.5,4.46l275.5,285.09C20008.8,3811.8,20009.5,3832.28,19997.3,3843.19Z" transform="translate(-18445 -2652)"/>
      <path id="_Path_24" data-name="&lt;Path&gt;" class="cls-8" d="M19401.3,3177.27l-264.8,134a274.149,274.149,0,0,1-16.8-59.3L19374,3123.3a29.677,29.677,0,0,1,13.6-3.27A30.26,30.26,0,0,1,19401.3,3177.27Z" transform="translate(-18445 -2652)"/>
      <path id="_Path_25" data-name="&lt;Path&gt;" class="cls-8" d="M19297.9,3337.86l-109.3,55.31a280.191,280.191,0,0,1-36.3-49.45l118.3-59.83a29.677,29.677,0,0,1,13.6-3.27A30.258,30.258,0,0,1,19297.9,3337.86Z" transform="translate(-18445 -2652)"/>
      <path id="_Path_26" data-name="&lt;Path&gt;" class="cls-16" d="M19333.2,2939.27c-122.1,25.83-214.2,132.97-217,262.15-21.4-37.14-37.4-75.77-49.2-110.03a344.223,344.223,0,0,1,202.3-205.33C19291.3,2900.02,19312.8,2918.18,19333.2,2939.27Z" transform="translate(-18445 -2652)"/>
      <path id="_Path_27" data-name="&lt;Path&gt;" class="cls-17" d="M19472.7,2946l-138.3,529.88a273.429,273.429,0,0,1-127.6-64.71c11.6-85.53,40.5-309.95,58.1-447.59A275.008,275.008,0,0,1,19472.7,2946Z" transform="translate(-18445 -2652)"/>
      <path id="_Path_28" data-name="&lt;Path&gt;" class="cls-17" d="M19618.2,3055.24l-101.6,395.53a272.413,272.413,0,0,1-96.6,29.21l115.7-504.88A275.211,275.211,0,0,1,19618.2,3055.24Z" transform="translate(-18445 -2652)"/>
    </g>
  </g>
</svg>
